# xmcd CD database file
#
# Track frame offsets:
#	150
#	15702
#	28363
#	42658
#	50701
#	65602
#	75017
#	84902
#	93680
#	103043
#	113631
#	122148
#	133374
#	143441
#	153595
#	163216
#	174596
#
# Disc length: 2536 seconds
#
# Revision: 0
# Processed by: cddbd v1.5.2PL0 Copyright (c) Steve Scherf et al.
# Submitted via: jetAudio 7
#
DISCID=ea09e611
DTITLE=Alan Ladd - The Highest Hill
DYEAR=1900
DGENRE=Gospel
TTITLE0=The Lowest Valley (The Highest Hill)
TTITLE1=In The Garden
TTITLE2=Softly And Tenderley
TTITLE3=I Call Him
TTITLE4=There's A Land Beyond The River
TTITLE5=Drifting Too Far From The Shore
TTITLE6=What A Friend We Have In Jesus
TTITLE7=Are All The Children In
TTITLE8=I Don't Deserve A Mansion
TTITLE9=Lead Me Father
TTITLE10=Blessed Assurance
TTITLE11=He Said If I
TTITLE12=The Snow In His Hair
TTITLE13=These Things Shall Pass
TTITLE14=Oh Come Angel Band
TTITLE15=Old Account Was Settled Long Ago
TTITLE16=Jerusalem's Cry
EXTD=
EXTT0=
EXTT1=
EXTT2=
EXTT3=
EXTT4=
EXTT5=
EXTT6=
EXTT7=
EXTT8=
EXTT9=
EXTT10=
EXTT11=
EXTT12=
EXTT13=
EXTT14=
EXTT15=
EXTT16=
PLAYORDER=
